# xmcd CD database file
#
# Track frame offsets:
#	150
#	21250
#	36825
#	54937
#	71862
#	89380
#	107662
#	127425
#	144545
#	162837
#
# Disc length: 2449 seconds
#
# Revision: 0
# Processed by: cddbd v1.5PL3 Copyright (c) Steve Scherf et al.
# Submitted via: CDex 1.51
#
DISCID=8f098f0a
DTITLE=本田理沙 - ME HER スクランブル
DYEAR=1989
DGENRE=Pop
TTITLE0=ME HER スクランブル
TTITLE1=Lesson 2
TTITLE2=いちごがポロリ
TTITLE3=本気！(マジ)
TTITLE4=鏡の私とFace to Face
TTITLE5=ある朝突然に
TTITLE6=た・わ・む・れ
TTITLE7=サマー・ポイズン
TTITLE8=いちごがポロリ Part2
TTITLE9=SUPPIN
EXTD=YEAR: 1989
EXTT0=
EXTT1=
EXTT2=
EXTT3=
EXTT4=
EXTT5=
EXTT6=
EXTT7=
EXTT8=
EXTT9=
PLAYORDER=
